<svg width="46" height="54" viewBox="0 0 46 54" fill="none" xmlns="http://www.w3.org/2000/svg">
<path d="M22.8457 1.00029C16.7093 1.00029 11.7333 6.34025 11.7333 12.9256C11.7333 17.8204 14.4835 22.0259 18.4148 23.8623C20.0567 25.6134 21.5015 28.0862 22.3207 31.5777C20.6178 27.338 16.6881 24.3708 12.1124 24.3708C5.97601 24.3708 1 29.7108 1 36.2962C1 42.8815 5.97601 48.2188 12.1124 48.2188C16.7011 48.2188 20.6403 45.2347 22.3354 40.9755C19.5203 53.1222 9.14479 53 9.14479 53H36.9208C36.9208 53 26.8537 52.9333 23.8614 41.4319C25.6497 45.4459 29.4674 48.2188 33.8899 48.2188C40.0264 48.2188 45 42.8815 45 36.2962C45 29.7108 40.0264 24.3708 33.8899 24.3708C29.4855 24.3708 25.6809 27.1208 23.8834 31.1082C24.8402 27.4821 26.5004 24.9977 28.3239 23.2988C28.3248 23.2979 28.3239 23.2974 28.3239 23.296C31.685 21.2461 33.9531 17.3712 33.9531 12.9253C33.9531 6.33996 28.9795 1 22.843 1L22.8457 1.00029Z" fill="#4B4B4B" stroke="#4B4B4B" stroke-width="0.05885" stroke-linecap="round" stroke-linejoin="round"/>
</svg>
